<svg width="300" height="424" viewBox="0 0 300 424" fill="none" xmlns="http://www.w3.org/2000/svg">
  <rect width="300" height="424" rx="4" fill="white"/>
  <rect width="300" height="424" rx="4" fill="url(#paint0_linear)" fill-opacity="0.05"/>
  <rect x="0.5" y="0.5" width="299" height="423" rx="3.5" stroke="#E5E7EB" stroke-opacity="0.5"/>
  
  <!-- Header background -->
  <rect y="0" width="300" height="100" fill="#6C7AD7"/>
  
  <!-- Title -->
  <text x="20" y="40" font-family="Arial" font-weight="bold" font-size="22" fill="white">FOMO 2.0 Framework</text>
  <text x="20" y="65" font-family="Arial" font-size="12" fill="white">By Maxime Lubbers</text>
  
  <!-- Content mock -->
  <rect x="20" y="120" width="260" height="10" rx="2" fill="#E5E7EB"/>
  <rect x="20" y="140" width="240" height="10" rx="2" fill="#E5E7EB"/>
  <rect x="20" y="160" width="260" height="10" rx="2" fill="#E5E7EB"/>
  <rect x="20" y="180" width="200" height="10" rx="2" fill="#E5E7EB"/>
  
  <!-- Mock chart -->
  <rect x="40" y="210" width="220" height="140" rx="4" fill="#F3F4F6"/>
  <circle cx="100" cy="260" r="30" fill="#6C7AD7" fill-opacity="0.7"/>
  <circle cx="150" cy="280" r="40" fill="#FF1DE9" fill-opacity="0.7"/>
  <circle cx="190" cy="250" r="25" fill="#9CA3AF" fill-opacity="0.7"/>
  <rect x="60" y="320" width="180" height="2" fill="#9CA3AF"/>
  
  <!-- Footer -->
  <rect x="20" y="370" width="160" height="10" rx="2" fill="#E5E7EB"/>
  <rect x="20" y="390" width="120" height="10" rx="2" fill="#E5E7EB"/>
  
  <!-- Page number -->
  <text x="280" y="410" font-family="Arial" font-size="12" fill="#9CA3AF" text-anchor="end">1</text>
  
  <!-- PDF corner fold -->
  <path d="M300 0V30H270L300 0Z" fill="#E5E7EB"/>
  <path d="M300 0L270 30" stroke="#9CA3AF" stroke-width="0.5"/>
  
  <defs>
    <linearGradient id="paint0_linear" x1="0" y1="0" x2="300" y2="424" gradientUnits="userSpaceOnUse">
      <stop stop-color="#6C7AD7" stop-opacity="0.1"/>
      <stop offset="1" stop-color="#FF1DE9" stop-opacity="0.05"/>
    </linearGradient>
  </defs>
</svg> 